<svg width="259" height="560" viewBox="0 0 259 560" fill="none" xmlns="http://www.w3.org/2000/svg">
<g clip-path="url(#clip0_401_876)">
<rect width="259" height="560" rx="12" fill="#D9CDBC"/>
<path d="M74.2327 385.379C74.2327 417.468 48.2135 443.48 16.1164 443.48C-15.9808 443.48 -42 417.468 -42 385.379C-42 353.291 -15.9808 327.278 16.1163 327.278C48.2135 327.278 74.2327 353.291 74.2327 385.379Z" fill="#761217"/>
<path d="M42.0659 385.379C42.0659 399.707 30.4471 411.322 16.1165 411.322C1.7844 411.322 -9.83301 399.706 -9.83301 385.379C-9.83301 371.051 1.78439 359.437 16.1164 359.437C30.4485 359.437 42.0659 371.051 42.0659 385.379Z" fill="#E1B83B"/>
<path d="M-42 211.077L-42 327.278L74.2327 327.278L74.2327 211.077L-42 211.077Z" fill="#0A335B"/>
<path d="M74.2327 443.48L74.2327 559.681C10.0384 559.681 -42 507.656 -42 443.48L74.2327 443.48Z" fill="#161925"/>
<path d="M74.2327 211.077L-42 211.077L-42 94.8752C22.1929 94.8766 74.2327 146.901 74.2327 211.077Z" fill="#761217"/>
<path d="M74.2327 -21.3243C74.2327 42.8513 22.1943 94.8772 -42 94.8772L-42 -21.3243L74.2327 -21.3243Z" fill="#E1B83B"/>
<path d="M190.464 443.48C190.464 507.656 138.426 559.681 74.2314 559.681L74.2314 443.48L190.464 443.48Z" fill="#761217"/>
<path d="M140.323 443.48C140.323 479.971 110.733 509.552 74.2329 509.552L74.2329 443.48L140.323 443.48Z" fill="#E1B83B"/>
<path d="M74.2329 327.278L74.2329 443.48L190.466 443.48L190.466 327.278L74.2329 327.278Z" fill="#0A335B"/>
<path d="M107.475 360.512L107.475 410.246L157.223 410.246L157.223 360.512L107.475 360.512Z" fill="#161925"/>
<path d="M74.2329 211.077L74.2329 327.278L190.466 327.278L190.466 211.077L74.2329 211.077Z" fill="#E9E5D9"/>
<path d="M190.464 211.077L190.464 327.278C126.271 327.278 74.2314 275.254 74.2314 211.077L190.464 211.077Z" fill="#761217"/>
<path d="M190.464 -21.3243L190.464 94.8772C126.271 94.8772 74.2314 42.8527 74.2314 -21.3243L190.464 -21.3243Z" fill="#761217"/>
<path d="M190.464 94.8767L190.464 211.078L74.2329 211.078C74.2329 146.901 126.271 94.8767 190.464 94.8767Z" fill="#E1B83B"/>
<path d="M190.464 327.278L190.464 443.48L306.697 443.48L306.697 327.278L190.464 327.278Z" fill="#E1B83B"/>
<path d="M190.464 211.077L190.464 327.278L306.697 327.278L306.697 211.077L190.464 211.077Z" fill="#F9FBFC"/>
<path d="M306.697 501.581C306.697 533.669 280.678 559.681 248.58 559.681C216.483 559.681 190.464 533.669 190.464 501.581C190.464 469.492 216.483 443.48 248.58 443.48C280.678 443.48 306.697 469.492 306.697 501.581Z" fill="#0A335B"/>
<path d="M274.513 501.581C274.513 515.899 262.903 527.506 248.58 527.506C234.258 527.506 222.648 515.899 222.648 501.581C222.648 487.262 234.258 475.655 248.58 475.655C262.903 475.655 274.513 487.262 274.513 501.581Z" fill="#DC5354"/>
<path d="M190.464 94.8752L190.464 211.077L306.697 211.077L306.697 94.8752L190.464 94.8752Z" fill="#F9FBFC"/>
<path d="M306.697 211.077C306.697 275.252 254.658 327.278 190.464 327.278L190.464 211.077L306.697 211.077Z" fill="#0A335B"/>
<path d="M306.697 211.077L190.464 211.077L190.464 94.8752C254.658 94.8766 306.697 146.901 306.697 211.077Z" fill="#761217"/>
<path d="M190.464 211.077L190.464 268.613C158.68 268.613 132.913 242.853 132.913 211.077L190.464 211.077Z" fill="#F9FBFC"/>
<path d="M190.464 153.542L190.464 211.078L132.913 211.078C132.914 179.302 158.681 153.542 190.464 153.542Z" fill="#161925"/>
<path d="M248.015 211.077C248.015 242.853 222.249 268.613 190.464 268.613L190.464 211.077L248.015 211.077Z" fill="#FBD15B"/>
<path d="M248.015 211.077L190.464 211.077L190.464 153.541C222.249 153.542 248.015 179.302 248.015 211.077Z" fill="#0A335B"/>
<path d="M306.697 -21.3243L306.697 94.8772L190.464 94.8772C190.464 30.7002 242.504 -21.3243 306.697 -21.3243Z" fill="#0A335B"/>
</g>
<defs>
<clipPath id="clip0_401_876">
<rect width="259" height="560" rx="12" fill="white"/>
</clipPath>
</defs>
</svg>
