<svg width="442" height="260" viewBox="0 0 442 260" fill="none" xmlns="http://www.w3.org/2000/svg">
<g clip-path="url(#clip0_401_876)">
<rect x="441.5" y="0.5" width="259" height="560" rx="12" transform="rotate(90 441.5 0.5)" fill="#D9CDBC"/>
<path d="M56.121 74.7327C24.0325 74.7327 -1.97972 48.7135 -1.97973 16.6164C-1.97973 -15.4808 24.0324 -41.5 56.121 -41.5C88.2095 -41.5 114.222 -15.4808 114.222 16.6163C114.222 48.7135 88.2095 74.7327 56.121 74.7327Z" fill="#761217"/>
<path d="M56.1209 42.5659C41.7927 42.5659 30.1785 30.9471 30.1785 16.6165C30.1785 2.2844 41.7941 -9.33301 56.1209 -9.33301C70.4491 -9.33301 82.0634 2.28439 82.0634 16.6164C82.0634 30.9485 70.4491 42.5659 56.1209 42.5659Z" fill="#E1B83B"/>
<path d="M230.423 -41.5L114.222 -41.5L114.222 74.7327L230.423 74.7327L230.423 -41.5Z" fill="#0A335B"/>
<path d="M230.423 74.7327L230.423 -41.5L346.625 -41.5C346.623 22.6929 294.599 74.7327 230.423 74.7327Z" fill="#761217"/>
<path d="M462.824 74.7327C398.649 74.7327 346.623 22.6943 346.623 -41.5L462.824 -41.5L462.824 74.7327Z" fill="#E1B83B"/>
<path d="M114.222 74.7329L-1.97974 74.7329L-1.97972 190.966L114.222 190.966L114.222 74.7329Z" fill="#0A335B"/>
<path d="M80.9881 107.975L31.2537 107.975L31.2537 157.723L80.9881 157.723L80.9881 107.975Z" fill="#161925"/>
<path d="M230.423 74.7329L114.222 74.7329L114.222 190.966L230.423 190.966L230.423 74.7329Z" fill="#E9E5D9"/>
<path d="M230.423 190.964L114.222 190.964C114.222 126.771 166.246 74.7314 230.423 74.7314L230.423 190.964Z" fill="#761217"/>
<path d="M462.824 190.964L346.623 190.964C346.623 126.771 398.647 74.7314 462.824 74.7314L462.824 190.964Z" fill="#761217"/>
<path d="M346.623 190.964L230.422 190.964L230.422 74.7329C294.599 74.7329 346.623 126.771 346.623 190.964Z" fill="#E1B83B"/>
<path d="M114.222 190.964L-1.97974 190.964L-1.97972 307.197L114.222 307.197L114.222 190.964Z" fill="#E1B83B"/>
<path d="M230.423 190.964L114.222 190.964L114.222 307.197L230.423 307.197L230.423 190.964Z" fill="#F9FBFC"/>
<path d="M346.625 190.964L230.423 190.964L230.423 307.197L346.625 307.197L346.625 190.964Z" fill="#F9FBFC"/>
<path d="M230.423 307.197C166.248 307.197 114.222 255.158 114.222 190.964L230.423 190.964L230.423 307.197Z" fill="#0A335B"/>
<path d="M230.423 307.197L230.423 190.964L346.625 190.964C346.623 255.158 294.599 307.197 230.423 307.197Z" fill="#761217"/>
<path d="M230.423 190.964L172.887 190.964C172.887 159.18 198.647 133.413 230.423 133.413L230.423 190.964Z" fill="#F9FBFC"/>
<path d="M287.958 190.964L230.422 190.964L230.422 133.413C262.198 133.414 287.958 159.181 287.958 190.964Z" fill="#161925"/>
<path d="M230.423 248.515C198.647 248.515 172.887 222.749 172.887 190.964L230.423 190.964L230.423 248.515Z" fill="#FBD15B"/>
<path d="M230.423 248.515L230.423 190.964L287.959 190.964C287.958 222.749 262.198 248.515 230.423 248.515Z" fill="#0A335B"/>
<path d="M462.824 307.197L346.623 307.197L346.623 190.964C410.8 190.964 462.824 243.004 462.824 307.197Z" fill="#0A335B"/>
</g>
<defs>
<clipPath id="clip0_401_876">
<rect x="441.5" y="0.5" width="259" height="560" rx="12" transform="rotate(90 441.5 0.5)" fill="white"/>
</clipPath>
</defs>
</svg>
