<svg width="32" height="32" viewBox="0 0 32 32" fill="none" xmlns="http://www.w3.org/2000/svg">
<path d="M5.55112 26.2632L5.55113 26.2632L8.09647 24.2546C8.28923 24.1024 8.42823 23.892 8.491 23.6537C8.55378 23.4153 8.53652 23.1634 8.44212 22.9359C8.44211 22.9358 8.44209 22.9358 8.44207 22.9358C8.44206 22.9357 8.44205 22.9357 8.44203 22.9357L7.23856 20.0329C7.23853 20.0328 7.2385 20.0328 7.23847 20.0327C4.56733 13.5811 9.38587 6.5 16.4987 6.5H16.9141C22.2164 6.5 26.5 10.725 26.5 15.9201C26.5 17.3084 26.222 18.6833 25.6816 19.9664C25.1412 21.2495 24.3489 22.4159 23.3495 23.3987C22.3501 24.3816 21.1632 25.1616 19.8564 25.6939C18.5496 26.2262 17.1487 26.5002 15.7337 26.5H15.7337H5.64519H5.64507C5.6131 26.5 5.58268 26.4902 5.55803 26.473C5.53349 26.4559 5.5163 26.4328 5.50734 26.4077L5.03669 26.576L5.50734 26.4077C5.49842 26.3827 5.49763 26.356 5.50497 26.3308C5.51233 26.3054 5.52792 26.2815 5.55112 26.2632Z" stroke="black"/>
</svg>
