<svg width="28" height="28" viewBox="0 0 28 28" fill="none" xmlns="http://www.w3.org/2000/svg">
<path d="M14.0002 0.560059C6.41389 0.560059 0.240234 6.59014 0.240234 14.0001C0.240234 21.41 6.41389 27.4401 14.0002 27.4401C21.5866 27.4401 27.7602 21.41 27.7602 14.0001C27.7602 6.59014 21.5866 0.560059 14.0002 0.560059ZM14.0002 2.80006C20.347 2.80006 25.4669 7.80086 25.4669 14.0001C25.4697 16.6813 24.4853 19.2741 22.6935 21.3054C20.9017 23.3366 18.4218 24.6708 15.7065 25.0645V17.266H18.9722L19.4847 14.0258H15.7065V12.2562C15.7065 10.9122 16.1594 9.71718 17.4471 9.71718H19.5168V6.8903C19.1534 6.84214 18.3839 6.73798 16.93 6.73798C13.8936 6.73798 12.114 8.30374 12.114 11.8721V14.0258H8.99274V17.266H12.114V25.0365C9.43621 24.6061 7.0024 23.2597 5.24737 21.2379C3.49235 19.2161 2.53046 16.6507 2.53357 14.0001C2.53357 7.80086 7.65343 2.80006 14.0002 2.80006Z" fill="black" fill-opacity="0.75"/>
</svg>
