<svg width="28" height="28" viewBox="0 0 28 28" fill="none" xmlns="http://www.w3.org/2000/svg">
<path d="M25.4399 11.7151H24.5002V11.6667H14.0002V16.3334H20.5936C19.6317 19.05 17.0469 21 14.0002 21C10.1344 21 7.00016 17.8658 7.00016 14C7.00016 10.1343 10.1344 7.00004 14.0002 7.00004C15.7846 7.00004 17.408 7.67321 18.6441 8.77279L21.944 5.47287C19.8603 3.53096 17.0732 2.33337 14.0002 2.33337C7.55725 2.33337 2.3335 7.55712 2.3335 14C2.3335 20.443 7.55725 25.6667 14.0002 25.6667C20.4431 25.6667 25.6668 20.443 25.6668 14C25.6668 13.2178 25.5863 12.4542 25.4399 11.7151Z" fill="#FFC107"/>
<path d="M3.67871 8.56979L7.51179 11.3809C8.54896 8.81304 11.0608 7.00004 14.0002 7.00004C15.7846 7.00004 17.408 7.67321 18.6441 8.77279L21.944 5.47287C19.8604 3.53096 17.0732 2.33337 14.0002 2.33337C9.51904 2.33337 5.63288 4.86329 3.67871 8.56979Z" fill="#FF3D00"/>
<path d="M3.67871 8.56979L7.51179 11.3809C8.54896 8.81304 11.0608 7.00004 14.0002 7.00004C15.7846 7.00004 17.408 7.67321 18.6441 8.77279L21.944 5.47287C19.8604 3.53096 17.0732 2.33337 14.0002 2.33337C9.51904 2.33337 5.63288 4.86329 3.67871 8.56979Z" fill="#FF3D00"/>
<path d="M14 25.6667C17.0135 25.6667 19.7517 24.5135 21.8219 22.638L18.2111 19.5825C17.0004 20.5033 15.521 21.0012 14 21C10.9655 21 8.38894 19.0651 7.41827 16.3649L3.61377 19.2961C5.5446 23.0744 9.46577 25.6667 14 25.6667Z" fill="#4CAF50"/>
<path d="M25.4397 11.715H24.5V11.6666H14V16.3333H20.5934C20.1333 17.6262 19.3045 18.756 18.2093 19.583L18.2111 19.5819L21.8219 22.6374C21.5664 22.8695 25.6667 19.8333 25.6667 14C25.6667 13.2177 25.5862 12.4541 25.4397 11.715Z" fill="#1976D2"/>
</svg>
