<svg width="32" height="32" viewBox="0 0 32 32" fill="none" xmlns="http://www.w3.org/2000/svg">
<path d="M18.1907 11.8972L18.0641 12.5H18.68H25C25.3978 12.5 25.7794 12.658 26.0607 12.9393C26.342 13.2206 26.5 13.6022 26.5 14V16C26.5 16.1905 26.4644 16.3667 26.3971 16.5409L23.3804 23.5831L23.3804 23.5831L23.3785 23.5877C23.1544 24.1254 22.6238 24.5 22 24.5H13C12.6022 24.5 12.2206 24.342 11.9393 24.0607C11.658 23.7794 11.5 23.3978 11.5 23V13C11.5 12.5873 11.664 12.2131 11.9436 11.9336L18.1717 5.70544L18.8764 6.40355C18.8767 6.40383 18.877 6.4041 18.8773 6.40437C19.0571 6.58467 19.17 6.83873 19.17 7.11C19.17 7.19027 19.1627 7.2663 19.1501 7.3298L18.1907 11.8972ZM8.5 13.5V24.5H5.5V13.5H8.5Z" stroke="black"/>
</svg>
