<svg width="28" height="29" viewBox="0 0 28 29" fill="none" xmlns="http://www.w3.org/2000/svg">
<path d="M14 1.5C6.82009 1.5 1 7.32009 1 14.5C1 21.6799 6.82009 27.5 14 27.5C21.1799 27.5 27 21.6799 27 14.5C27 7.32009 21.1799 1.5 14 1.5Z" stroke="black" stroke-width="1.5" stroke-linecap="round" stroke-linejoin="round"/>
<path d="M3.95235 22.7495C3.95235 22.7495 6.85005 19.0497 14 19.0497C21.15 19.0497 24.049 22.7495 24.049 22.7495M14 14.4997C15.0344 14.4997 16.0264 14.0888 16.7578 13.3574C17.4891 12.626 17.9 11.634 17.9 10.5997C17.9 9.56536 17.4891 8.57338 16.7578 7.84199C16.0264 7.1106 15.0344 6.69971 14 6.69971C12.9657 6.69971 11.9737 7.1106 11.2423 7.84199C10.5109 8.57338 10.1 9.56536 10.1 10.5997C10.1 11.634 10.5109 12.626 11.2423 13.3574C11.9737 14.0888 12.9657 14.4997 14 14.4997Z" stroke="black" stroke-width="1.5" stroke-linecap="round" stroke-linejoin="round"/>
</svg>
