<svg width="28" height="28" viewBox="0 0 28 28" fill="none" xmlns="http://www.w3.org/2000/svg">
<path d="M23.4001 4.54671C22.1777 3.31194 20.7216 2.33293 19.1169 1.66677C17.5122 1.00062 15.7909 0.660652 14.0534 0.666705C6.7734 0.666705 0.840065 6.60004 0.840065 13.88C0.840065 16.2134 1.4534 18.48 2.60007 20.48L0.733398 27.3334L7.7334 25.4934C9.66673 26.5467 11.8401 27.1067 14.0534 27.1067C21.3334 27.1067 27.2667 21.1734 27.2667 13.8934C27.2667 10.36 25.8934 7.04004 23.4001 4.54671ZM14.0534 24.8667C12.0801 24.8667 10.1467 24.3334 8.4534 23.3334L8.0534 23.0934L3.8934 24.1867L5.00006 20.1334L4.7334 19.72C3.63706 17.9693 3.05492 15.9457 3.0534 13.88C3.0534 7.8267 7.98673 2.89337 14.0401 2.89337C16.9734 2.89337 19.7334 4.04004 21.8001 6.12004C22.8234 7.13866 23.6343 8.35025 24.1859 9.6846C24.7375 11.019 25.0188 12.4495 25.0134 13.8934C25.0401 19.9467 20.1067 24.8667 14.0534 24.8667ZM20.0801 16.6534C19.7467 16.4934 18.1201 15.6934 17.8267 15.5734C17.5201 15.4667 17.3067 15.4134 17.0801 15.7334C16.8534 16.0667 16.2267 16.8134 16.0401 17.0267C15.8534 17.2534 15.6534 17.28 15.3201 17.1067C14.9867 16.9467 13.9201 16.5867 12.6667 15.4667C11.6801 14.5867 11.0267 13.5067 10.8267 13.1734C10.6401 12.84 10.8001 12.6667 10.9734 12.4934C11.1201 12.3467 11.3067 12.1067 11.4667 11.92C11.6267 11.7334 11.6934 11.5867 11.8001 11.3734C11.9067 11.1467 11.8534 10.96 11.7734 10.8C11.6934 10.64 11.0267 9.01337 10.7601 8.3467C10.4934 7.70671 10.2134 7.7867 10.0134 7.77337H9.3734C9.14673 7.77337 8.80006 7.85337 8.4934 8.1867C8.20006 8.52004 7.34673 9.32004 7.34673 10.9467C7.34673 12.5734 8.5334 14.1467 8.6934 14.36C8.8534 14.5867 11.0267 17.92 14.3334 19.3467C15.1201 19.6934 15.7334 19.8934 16.2134 20.04C17.0001 20.2934 17.7201 20.2534 18.2934 20.1734C18.9334 20.08 20.2534 19.3734 20.5201 18.6C20.8001 17.8267 20.8001 17.1734 20.7067 17.0267C20.6134 16.88 20.4134 16.8134 20.0801 16.6534Z" fill="black" fill-opacity="0.75"/>
</svg>
